<svg xmlns="http://www.w3.org/2000/svg" viewBox="0 0 800 450" width="800" height="450">
  <defs>
    <linearGradient id="hero-bg" x1="0%" y1="0%" x2="100%" y2="100%">
      <stop offset="0%" style="stop-color:#0d47a1"/>
      <stop offset="100%" style="stop-color:#1565c0"/>
    </linearGradient>
    <linearGradient id="btn" x1="0%" y1="0%" x2="100%" y2="0%">
      <stop offset="0%" style="stop-color:#ff6f00"/>
      <stop offset="100%" style="stop-color:#ff8f00"/>
    </linearGradient>
  </defs>

  <!-- White background -->
  <rect width="800" height="450" fill="#f5f7fa"/>

  <!-- Navigation -->
  <rect x="0" y="0" width="800" height="56" fill="#ffffff"/>
  <rect x="0" y="56" width="800" height="1" fill="#e0e6ed"/>
  <!-- Logo -->
  <rect x="32" y="16" width="28" height="28" fill="#1565c0" rx="6"/>
  <rect x="38" y="22" width="16" height="4" fill="#ffffff" rx="1"/>
  <rect x="38" y="29" width="10" height="4" fill="#ffffff" opacity="0.7" rx="1"/>
  <rect x="38" y="36" width="14" height="4" fill="#ffffff" opacity="0.4" rx="1"/>
  <rect x="68" y="20" width="70" height="10" fill="#0d47a1" rx="2"/>
  <rect x="68" y="33" width="50" height="6" fill="#0d47a1" opacity="0.4" rx="1"/>
  <!-- Nav links -->
  <rect x="240" y="24" width="48" height="7" fill="#546e7a" rx="2"/>
  <rect x="304" y="24" width="60" height="7" fill="#546e7a" rx="2"/>
  <rect x="380" y="24" width="48" height="7" fill="#546e7a" rx="2"/>
  <rect x="444" y="24" width="54" height="7" fill="#546e7a" rx="2"/>
  <!-- Search icon -->
  <circle cx="524" cy="28" r="8" fill="none" stroke="#90a4ae" stroke-width="1.5"/>
  <rect x="530" y="33" width="6" height="1.5" fill="#90a4ae" rx="1" transform="rotate(45 533 34.5)"/>
  <!-- Cart icon -->
  <rect x="552" y="20" width="16" height="16" fill="none" stroke="#546e7a" stroke-width="1.5" rx="2"/>
  <rect x="556" y="16" width="8" height="6" fill="none" stroke="#546e7a" stroke-width="1.5" rx="3"/>
  <circle cx="557" cy="39" r="2" fill="#546e7a"/>
  <circle cx="565" cy="39" r="2" fill="#546e7a"/>
  <!-- CTA -->
  <rect x="596" y="14" width="140" height="28" fill="url(#btn)" rx="5"/>
  <rect x="608" y="21" width="116" height="7" fill="#ffffff" rx="2"/>

  <!-- Hero strip (blue) -->
  <rect x="0" y="57" width="800" height="180" fill="url(#hero-bg)"/>
  <!-- Breadcrumb -->
  <rect x="32" y="72" width="200" height="6" fill="#90caf9" opacity="0.6" rx="2"/>
  <!-- H1 -->
  <rect x="32" y="90" width="340" height="18" fill="#ffffff" rx="3"/>
  <rect x="32" y="114" width="280" height="18" fill="#ffffff" opacity="0.9" rx="3"/>
  <!-- Subtext -->
  <rect x="32" y="144" width="300" height="7" fill="#90caf9" rx="2"/>
  <rect x="32" y="156" width="260" height="7" fill="#90caf9" opacity="0.7" rx="2"/>
  <!-- Buttons -->
  <rect x="32" y="178" width="120" height="34" fill="#ff8f00" rx="5"/>
  <rect x="44" y="191" width="96" height="7" fill="#ffffff" rx="2"/>
  <rect x="166" y="178" width="110" height="34" fill="rgba(255,255,255,0.15)" stroke="rgba(255,255,255,0.5)" stroke-width="1" rx="5"/>
  <rect x="178" y="191" width="86" height="7" fill="#ffffff" rx="2"/>

  <!-- Product count ribbon right side hero -->
  <rect x="500" y="68" width="268" height="156" fill="rgba(0,0,0,0.15)" rx="8"/>
  <rect x="516" y="80" width="236" height="14" fill="rgba(255,255,255,0.15)" rx="3"/>
  <!-- Mini product cards -->
  <rect x="516" y="100" width="70" height="66" fill="rgba(255,255,255,0.12)" rx="4"/>
  <rect x="526" y="108" width="50" height="36" fill="rgba(255,255,255,0.2)" rx="3"/>
  <rect x="526" y="148" width="50" height="5" fill="rgba(255,255,255,0.4)" rx="1"/>
  <rect x="526" y="156" width="36" height="4" fill="#ff8f00" opacity="0.7" rx="1"/>
  <rect x="598" y="100" width="70" height="66" fill="rgba(255,255,255,0.12)" rx="4"/>
  <rect x="608" y="108" width="50" height="36" fill="rgba(255,255,255,0.2)" rx="3"/>
  <rect x="608" y="148" width="50" height="5" fill="rgba(255,255,255,0.4)" rx="1"/>
  <rect x="608" y="156" width="36" height="4" fill="#ff8f00" opacity="0.7" rx="1"/>
  <rect x="680" y="100" width="70" height="66" fill="rgba(255,255,255,0.12)" rx="4"/>
  <rect x="690" y="108" width="50" height="36" fill="rgba(255,255,255,0.2)" rx="3"/>
  <rect x="690" y="148" width="50" height="5" fill="rgba(255,255,255,0.4)" rx="1"/>
  <rect x="690" y="156" width="36" height="4" fill="#ff8f00" opacity="0.7" rx="1"/>

  <!-- Category filters -->
  <rect x="0" y="237" width="800" height="44" fill="#ffffff"/>
  <rect x="0" y="281" width="800" height="1" fill="#e0e6ed"/>
  <rect x="32" y="252" width="80" height="13" fill="#1565c0" rx="12"/>
  <rect x="40" y="256" width="64" height="5" fill="#ffffff" rx="2"/>
  <rect x="124" y="252" width="80" height="13" fill="#f5f7fa" stroke="#e0e6ed" stroke-width="1" rx="12"/>
  <rect x="132" y="256" width="64" height="5" fill="#546e7a" rx="2"/>
  <rect x="216" y="252" width="80" height="13" fill="#f5f7fa" stroke="#e0e6ed" stroke-width="1" rx="12"/>
  <rect x="224" y="256" width="64" height="5" fill="#546e7a" rx="2"/>
  <rect x="308" y="252" width="80" height="13" fill="#f5f7fa" stroke="#e0e6ed" stroke-width="1" rx="12"/>
  <rect x="316" y="256" width="64" height="5" fill="#546e7a" rx="2"/>

  <!-- Product grid -->
  <rect x="32" y="294" width="168" height="140" fill="#ffffff" rx="8" stroke="#e0e6ed" stroke-width="1"/>
  <rect x="32" y="294" width="168" height="80" fill="#e3f2fd" rx="8"/>
  <rect x="32" y="362" width="168" height="12" fill="#e3f2fd" rx="0"/>
  <rect x="44" y="380" width="100" height="7" fill="#263238" rx="2"/>
  <rect x="44" y="392" width="70" height="6" fill="#90a4ae" rx="2"/>
  <rect x="44" y="404" width="50" height="8" fill="#1565c0" rx="2"/>
  <rect x="152" y="404" width="32" height="8" fill="#ff8f00" rx="2"/>

  <rect x="212" y="294" width="168" height="140" fill="#ffffff" rx="8" stroke="#e0e6ed" stroke-width="1"/>
  <rect x="212" y="294" width="168" height="80" fill="#fce4ec" rx="8"/>
  <rect x="212" y="362" width="168" height="12" fill="#fce4ec" rx="0"/>
  <rect x="224" y="380" width="110" height="7" fill="#263238" rx="2"/>
  <rect x="224" y="392" width="70" height="6" fill="#90a4ae" rx="2"/>
  <rect x="224" y="404" width="50" height="8" fill="#1565c0" rx="2"/>
  <rect x="332" y="404" width="32" height="8" fill="#ff8f00" rx="2"/>

  <rect x="392" y="294" width="168" height="140" fill="#ffffff" rx="8" stroke="#e0e6ed" stroke-width="1"/>
  <rect x="392" y="294" width="168" height="80" fill="#e8f5e9" rx="8"/>
  <rect x="392" y="362" width="168" height="12" fill="#e8f5e9" rx="0"/>
  <rect x="404" y="380" width="90" height="7" fill="#263238" rx="2"/>
  <rect x="404" y="392" width="70" height="6" fill="#90a4ae" rx="2"/>
  <rect x="404" y="404" width="50" height="8" fill="#1565c0" rx="2"/>
  <rect x="512" y="404" width="32" height="8" fill="#ff8f00" rx="2"/>

  <rect x="572" y="294" width="168" height="140" fill="#ffffff" rx="8" stroke="#e0e6ed" stroke-width="1"/>
  <rect x="572" y="294" width="168" height="80" fill="#fff8e1" rx="8"/>
  <rect x="572" y="362" width="168" height="12" fill="#fff8e1" rx="0"/>
  <rect x="584" y="380" width="100" height="7" fill="#263238" rx="2"/>
  <rect x="584" y="392" width="70" height="6" fill="#90a4ae" rx="2"/>
  <rect x="584" y="404" width="50" height="8" fill="#1565c0" rx="2"/>
  <rect x="692" y="404" width="32" height="8" fill="#ff8f00" rx="2"/>
</svg>
